<?xml version="1.0" encoding="utf-8"?>
<!-- Generator: Adobe Illustrator 24.2.0, SVG Export Plug-In . SVG Version: 6.00 Build 0)  -->
<svg version="1.1" xmlns="http://www.w3.org/2000/svg" xmlns:xlink="http://www.w3.org/1999/xlink" x="0px" y="0px"
	 viewBox="0 0 1366 768" style="enable-background:new 0 0 1366 768;" xml:space="preserve">
<style type="text/css">
	.st0{fill:#C1272D;stroke:#9A0000;stroke-miterlimit:10;}
	.st1{fill:#A5272D;stroke:#9A0000;stroke-miterlimit:10;}
	.st2{display:none;}
	.st3{display:inline;fill:#A5272D;stroke:#9A0000;stroke-miterlimit:10;}
	.st4{fill:#A1272D;stroke:#9A0000;stroke-miterlimit:10;}
	.st5{fill:#78272D;stroke:#9A0000;stroke-miterlimit:10;}
	.st6{fill:none;stroke:#C38E00;stroke-width:6;stroke-miterlimit:10;}
	.st7{fill:none;stroke:#DA9100;stroke-width:6;stroke-miterlimit:10;}
</style>
<g id="curtain">
	<path class="st0" d="M257.01,767.5c-85.84,0.33-171.67,0.67-257.51,1V0.5C85.34,256.17,171.17,511.83,257.01,767.5z"/>
	<path class="st1" d="M-0.5,649.32l0-646.84c0-1.64,0.88-2.97,1.97-2.97L306-0.5c0.7,0,1.18,1.06,0.94,2.04
		c-40.14,160.32-59.78,207.68-59.78,207.68c-7.29,16.47-15.89,35.74-25.66,57.28C148.08,394.44,74.67,522.37,1.25,650.31
		C0.67,649.98,0.08,649.65-0.5,649.32z"/>
	<path class="st0" d="M1107.67,766.6c85.84,0.33,171.67,0.67,257.51,1v-768C1279.34,255.27,1193.51,510.93,1107.67,766.6z"/>
	<path class="st1" d="M1365.18,648.41l0-646.84c0-1.64-0.88-2.97-1.97-2.97l-304.52,0c-0.7,0-1.18,1.06-0.94,2.04
		c40.14,160.32,59.78,207.68,59.78,207.68c7.29,16.47,15.89,35.74,25.66,57.28c73.42,127.94,146.83,255.87,220.25,383.81
		C1364.01,649.08,1364.59,648.75,1365.18,648.41z"/>
</g>
<g id="curtainsdown" class="st2">
	<rect x="-0.5" y="-0.5" class="st3" width="305" height="769"/>
	<rect x="1061.5" y="-0.5" class="st3" width="305" height="769"/>
</g>
<g id="strokes">
	<path class="st4" d="M1297.18,609.6c6.51,0.48,11.98,36.66,12.03,161.32c-2.98-0.25-5.96-0.59-8.96-0.65
		c-0.83-0.01-1.54,0.15-2.15,0.42c-2.53-0.29-5.04-0.51-7.46-0.7c-9.42-0.74-20.2-1.21-29.77,1.14
		C1279.68,644.83,1290.6,609.11,1297.18,609.6z"/>
	<path class="st4" d="M1188.18,770.28c-6.05-0.44-12.13,0.63-18.17,0.63c32.39-143.43,52.11-214.55,59.17-213.31
		c6.91,1.21,1.66,71.91-15.76,212.08c-8.09-0.65-16.24-0.04-24.39,0.73C1188.75,770.35,1188.48,770.3,1188.18,770.28z"/>
	<path class="st5" d="M1162.6-0.03c-6,0.88-12.15,0.12-18.17,0.51c42.67,154.42,67.49,230.75,74.44,228.94
		c6.81-1.78-3.54-78.6-31.04-230.46c-8.03,1.25-16.2,1.11-24.39,0.82C1163.17-0.15,1162.89-0.08,1162.6-0.03z"/>
	<path class="st5" d="M1264.52-2.62c-6.83,0.84-13.76-0.56-20.6-0.39c42.37,212.16,67.53,317.26,75.47,315.21
		c7.78-2.01-0.97-106.91-26.25-314.69c-9.14,1.21-18.39,0.55-27.66-0.34C1265.17-2.75,1264.86-2.66,1264.52-2.62z"/>
	<path class="st4" d="M67.5,610.5c-6.51,0.48-11.98,36.66-12.03,161.32c2.98-0.25,5.96-0.59,8.96-0.65
		c0.83-0.01,1.54,0.15,2.15,0.42c2.53-0.29,5.04-0.51,7.46-0.7c9.42-0.74,20.2-1.21,29.77,1.14
		C84.99,645.73,74.08,610.01,67.5,610.5z"/>
	<path class="st4" d="M176.5,771.18c6.05-0.44,12.13,0.63,18.17,0.63c-32.39-143.43-52.11-214.55-59.17-213.31
		c-6.91,1.21-1.66,71.91,15.76,212.08c8.09-0.65,16.24-0.04,24.39,0.73C175.92,771.25,176.2,771.2,176.5,771.18z"/>
	<path class="st5" d="M202.08,0.87c6,0.88,12.15,0.12,18.17,0.51c-42.67,154.42-67.49,230.75-74.44,228.94
		c-6.81-1.78,3.54-78.6,31.04-230.46c8.03,1.25,16.2,1.11,24.39,0.82C201.51,0.75,201.78,0.82,202.08,0.87z"/>
	<path class="st5" d="M100.15-1.72c6.83,0.84,13.76-0.56,20.6-0.39C78.39,210.05,53.23,315.14,45.29,313.09
		c-7.78-2.01,0.97-106.91,26.25-314.69c9.14,1.21,18.39,0.55,27.66-0.34C99.51-1.84,99.82-1.76,100.15-1.72z"/>
</g>
<g id="string">
	<path class="st6" d="M1374.68,421.1c-6.24-0.19-9.05-14.57-16.12-8.56c-3.09,2.63-4.05,8.93-8.76,9.41
		c-5.18,0.53-7.71-6.85-11.24-9.4c-9.07-6.54-10.46,14.89-18.89,8.48c-4.22-3.21-7.79-15.36-14.22-7.22
		c-1.82,2.31-3.17,6.37-6.35,7.14c-2.58,0.63-4.39-1.45-5.8-3.3c-3.4-4.45-6.46-9.83-11.49-3.45c-2.22,2.82-3.79,7.57-7.6,8.65
		c-4.42,1.26-6.97-3.38-8.9-6.45c-1.65-2.62-4.25-6.4-7.83-4.74c-2.95,1.37-4.5,5.41-6.1,8c-1.48,2.39-3.65,5.42-6.81,3.84
		c-2.9-1.45-4.41-5.58-5.83-8.26c-1.24-2.35-3.15-6.05-6.36-4.66c-2.94,1.27-4.41,5.71-5.85,8.29c-0.86,1.54-1.5,3.14-3.15,3.85
		c-0.67,0.29-1.29,0.36-1.7,0.37"/>
	<path class="st7" d="M1372.68,408.1c-1.5,4.18-5.86,17.15-12.33,13.04c-3.98-2.53-4.36-8.94-9.01-10.68
		c-4.86-1.82-7.36,4.79-9.55,7.86c-3.36,4.72-7.45,4.54-10.86-0.11c-1.87-2.56-4.33-8.6-8.38-8.02
		c-5.86,0.84-5.95,12.99-12.76,11.93c-5.82-0.91-5.4-11.1-11.31-11.99c-6.49-0.98-6.71,10.61-12.16,11.86
		c-3.74,0.86-5.82-4.53-7.4-6.91c-3.01-4.55-6.98-5.07-10.43-0.63c-2.33,3-5.02,9.67-9.82,8.48c-4.88-1.21-5.59-8.02-9.3-10.75
		c-6.44-4.74-9.99,7.58-14.18,10.18c-6.37,3.95-7.47-8-9.73-11.25c-0.75-1.09-1.65-2.04-3.08-1.99"/>
	<path class="st6" d="M-10,422c6.24-0.19,9.05-14.57,16.12-8.56c3.09,2.63,4.05,8.93,8.76,9.41c5.18,0.53,7.71-6.85,11.24-9.4
		c9.07-6.54,10.47,14.89,18.89,8.48c4.22-3.21,7.79-15.36,14.22-7.22c1.82,2.31,3.17,6.37,6.35,7.14c2.58,0.63,4.39-1.45,5.8-3.3
		c3.4-4.45,6.46-9.83,11.49-3.45c2.22,2.82,3.79,7.57,7.6,8.65c4.42,1.26,6.97-3.38,8.9-6.45c1.65-2.62,4.25-6.4,7.83-4.74
		c2.95,1.37,4.5,5.41,6.1,8c1.48,2.39,3.65,5.42,6.81,3.84c2.9-1.45,4.41-5.58,5.83-8.26c1.24-2.35,3.15-6.05,6.36-4.66
		c2.94,1.27,4.41,5.71,5.85,8.29c0.86,1.54,1.5,3.14,3.15,3.85c0.67,0.29,1.29,0.36,1.7,0.37"/>
	<path class="st7" d="M-8,409c1.5,4.18,5.86,17.15,12.33,13.04c3.98-2.53,4.36-8.94,9.01-10.68c4.86-1.82,7.36,4.79,9.55,7.86
		c3.36,4.72,7.45,4.54,10.86-0.11c1.87-2.56,4.33-8.6,8.38-8.02c5.86,0.84,5.95,12.99,12.76,11.93c5.82-0.91,5.4-11.1,11.31-11.99
		c6.49-0.98,6.71,10.61,12.16,11.86c3.74,0.86,5.82-4.53,7.4-6.91c3.01-4.55,6.98-5.07,10.43-0.63c2.33,3,5.02,9.67,9.82,8.48
		c4.88-1.21,5.59-8.02,9.3-10.75c6.44-4.74,9.99,7.58,14.18,10.18c6.37,3.95,7.47-8,9.73-11.25c0.75-1.09,1.65-2.04,3.08-1.99"/>
</g>
</svg>
